<mxfile host="65bd71144e">
    <diagram id="RxPv6xupyiPjXx5Fq1Mp" name="Coffee">
        <mxGraphModel dx="1326" dy="615" grid="1" gridSize="10" guides="1" tooltips="1" connect="1" arrows="1" fold="1" page="1" pageScale="1" pageWidth="850" pageHeight="1100" background="#CCCCCC" math="0" shadow="0">
            <root>
                <mxCell id="0"/>
                <mxCell id="1" parent="0"/>
                <mxCell id="2" value="Navigation Bar" style="rounded=0;whiteSpace=wrap;html=1;" parent="1" vertex="1">
                    <mxGeometry x="20" y="20" width="780" height="60" as="geometry"/>
                </mxCell>
                <mxCell id="3" value="Footer" style="rounded=0;whiteSpace=wrap;html=1;" parent="1" vertex="1">
                    <mxGeometry x="22.5" y="1010" width="795" height="60" as="geometry"/>
                </mxCell>
                <mxCell id="rbakoWBd-FfG9HpFcR_M-8" value="" style="rounded=1;whiteSpace=wrap;html=1;" parent="1" vertex="1">
                    <mxGeometry x="740" y="30" width="50" height="40" as="geometry"/>
                </mxCell>
                <mxCell id="rbakoWBd-FfG9HpFcR_M-9" value="Nespresso Suite Title &amp;amp; Logo" style="rounded=1;whiteSpace=wrap;html=1;" parent="1" vertex="1">
                    <mxGeometry x="30" y="30" width="230" height="40" as="geometry"/>
                </mxCell>
                <mxCell id="rbakoWBd-FfG9HpFcR_M-11" style="edgeStyle=none;html=1;exitX=1;exitY=0.5;exitDx=0;exitDy=0;entryX=0;entryY=0.5;entryDx=0;entryDy=0;labelBorderColor=#FFFFFF;textShadow=1;fillColor=#f9f7ed;strokeColor=#36393d;" parent="1" source="rbakoWBd-FfG9HpFcR_M-10" target="rbakoWBd-FfG9HpFcR_M-8" edge="1">
                    <mxGeometry relative="1" as="geometry"/>
                </mxCell>
                <mxCell id="rbakoWBd-FfG9HpFcR_M-10" value="Grid icon to navigate to different apps" style="text;html=1;align=center;verticalAlign=middle;whiteSpace=wrap;rounded=0;labelBackgroundColor=#FFFFFF;" parent="1" vertex="1">
                    <mxGeometry x="510" y="100" width="80" height="60" as="geometry"/>
                </mxCell>
                <mxCell id="rbakoWBd-FfG9HpFcR_M-12" value="Click &quot;Nespresso Suite&quot; to go to dashboard page" style="text;html=1;align=center;verticalAlign=middle;whiteSpace=wrap;rounded=0;labelBackgroundColor=#FFFFFF;" parent="1" vertex="1">
                    <mxGeometry x="150" y="115" width="150" height="30" as="geometry"/>
                </mxCell>
                <mxCell id="rbakoWBd-FfG9HpFcR_M-13" style="edgeStyle=none;html=1;exitX=0.25;exitY=0;exitDx=0;exitDy=0;entryX=0.548;entryY=0.975;entryDx=0;entryDy=0;entryPerimeter=0;labelBorderColor=#FFFFFF;textShadow=1;fillColor=#f9f7ed;strokeColor=#36393d;" parent="1" source="rbakoWBd-FfG9HpFcR_M-12" target="rbakoWBd-FfG9HpFcR_M-9" edge="1">
                    <mxGeometry relative="1" as="geometry"/>
                </mxCell>
                <mxCell id="7" value="" style="rounded=1;whiteSpace=wrap;html=1;" parent="1" vertex="1">
                    <mxGeometry x="32.5" y="1020" width="90" height="40" as="geometry"/>
                </mxCell>
                <mxCell id="8" value="" style="rounded=1;whiteSpace=wrap;html=1;" parent="1" vertex="1">
                    <mxGeometry x="742.5" y="1020" width="70" height="40" as="geometry"/>
                </mxCell>
                <mxCell id="10" style="edgeStyle=none;html=1;exitX=0.25;exitY=1;exitDx=0;exitDy=0;entryX=0.5;entryY=0;entryDx=0;entryDy=0;" parent="1" source="9" target="7" edge="1">
                    <mxGeometry relative="1" as="geometry"/>
                </mxCell>
                <mxCell id="9" value="Nespresso Logo that opens tab to Nespresso Canada website" style="text;html=1;align=center;verticalAlign=middle;whiteSpace=wrap;rounded=0;labelBackgroundColor=#FFFFFF;" parent="1" vertex="1">
                    <mxGeometry x="112.5" y="940" width="150" height="30" as="geometry"/>
                </mxCell>
                <mxCell id="12" style="edgeStyle=none;html=1;exitX=0.5;exitY=1;exitDx=0;exitDy=0;entryX=0.5;entryY=0;entryDx=0;entryDy=0;" parent="1" source="11" target="8" edge="1">
                    <mxGeometry relative="1" as="geometry"/>
                </mxCell>
                <mxCell id="11" value="GitHub logo that opens tab to project repository" style="text;html=1;align=center;verticalAlign=middle;whiteSpace=wrap;rounded=0;labelBackgroundColor=#FFFFFF;" parent="1" vertex="1">
                    <mxGeometry x="632.5" y="950" width="130" height="30" as="geometry"/>
                </mxCell>
                <mxCell id="28" value="Heading" style="rounded=1;whiteSpace=wrap;html=1;" parent="1" vertex="1">
                    <mxGeometry x="20" y="100" width="100" height="60" as="geometry"/>
                </mxCell>
                <mxCell id="29" value="Toggle filter options" style="rounded=1;whiteSpace=wrap;html=1;" parent="1" vertex="1">
                    <mxGeometry x="680" y="100" width="120" height="60" as="geometry"/>
                </mxCell>
                <mxCell id="30" value="Filter options for the following:&lt;div&gt;Name of Coffee,&amp;nbsp;&lt;/div&gt;&lt;div&gt;Status,&lt;/div&gt;&lt;div&gt;Machine Type&lt;/div&gt;&lt;div&gt;The date that the coffee data was last updated&lt;/div&gt;" style="rounded=1;whiteSpace=wrap;html=1;" parent="1" vertex="1">
                    <mxGeometry x="22.5" y="180" width="777.5" height="110" as="geometry"/>
                </mxCell>
                <mxCell id="34" value="List of expansion panels showing a list of coffees that will filter based on above selections, and also have a field to filter by coffee name.&lt;div&gt;Expansion panel header &amp;amp; description: Machine Type, Name of Coffee, Intensity, Headline&lt;/div&gt;&lt;div&gt;Expansion panel when expanded: More information grouped in tabs; General Information, The Story, Taste Profile, Recommendations&lt;/div&gt;" style="rounded=1;whiteSpace=wrap;html=1;" parent="1" vertex="1">
                    <mxGeometry x="22.5" y="310" width="777.5" height="130" as="geometry"/>
                </mxCell>
                <mxCell id="41" style="edgeStyle=none;html=1;exitX=0.5;exitY=0;exitDx=0;exitDy=0;entryX=0.5;entryY=1;entryDx=0;entryDy=0;" edge="1" parent="1" source="36" target="34">
                    <mxGeometry relative="1" as="geometry"/>
                </mxCell>
                <mxCell id="36" value="General Information tab:&lt;div&gt;Category&lt;/div&gt;&lt;div&gt;Cup size&lt;/div&gt;&lt;div&gt;Price&lt;/div&gt;&lt;div&gt;Notes,&lt;/div&gt;&lt;div&gt;Estimated intensity&lt;/div&gt;&lt;div&gt;Link to coffee flavour reference guide&lt;/div&gt;&lt;div&gt;Contents &amp;amp; allergens&lt;/div&gt;&lt;div&gt;Ingredients&lt;/div&gt;&lt;div&gt;Net weight&lt;/div&gt;" style="rounded=1;whiteSpace=wrap;html=1;" vertex="1" parent="1">
                    <mxGeometry x="12.5" y="480" width="247.5" height="170" as="geometry"/>
                </mxCell>
                <mxCell id="42" style="edgeStyle=none;html=1;exitX=0.5;exitY=0;exitDx=0;exitDy=0;entryX=0.5;entryY=1;entryDx=0;entryDy=0;" edge="1" parent="1" source="37" target="34">
                    <mxGeometry relative="1" as="geometry"/>
                </mxCell>
                <mxCell id="37" value="The Story tab:&lt;div&gt;Description&lt;/div&gt;&lt;div&gt;Origin&lt;/div&gt;&lt;div&gt;Roasting&lt;/div&gt;" style="rounded=1;whiteSpace=wrap;html=1;" vertex="1" parent="1">
                    <mxGeometry x="565" y="480" width="247.5" height="170" as="geometry"/>
                </mxCell>
                <mxCell id="44" style="edgeStyle=none;html=1;exitX=0.5;exitY=0;exitDx=0;exitDy=0;" edge="1" parent="1" source="38">
                    <mxGeometry relative="1" as="geometry">
                        <mxPoint x="410" y="440" as="targetPoint"/>
                    </mxGeometry>
                </mxCell>
                <mxCell id="38" value="Recommendations tab:&lt;div&gt;Table showing unique name of coffee (i.e., machine type &amp;amp; name of coffee), headline, cup size, intensity, and similarity score&lt;/div&gt;" style="rounded=1;whiteSpace=wrap;html=1;" vertex="1" parent="1">
                    <mxGeometry x="425" y="700" width="247.5" height="170" as="geometry"/>
                </mxCell>
                <mxCell id="43" style="edgeStyle=none;html=1;exitX=0.5;exitY=0;exitDx=0;exitDy=0;entryX=0.5;entryY=1;entryDx=0;entryDy=0;" edge="1" parent="1" source="40" target="34">
                    <mxGeometry relative="1" as="geometry"/>
                </mxCell>
                <mxCell id="40" value="Taste Profile tab:&lt;div&gt;Taste description and chart outlining taste profile qualities on a scale of 0 to 5&amp;nbsp;&lt;/div&gt;" style="rounded=1;whiteSpace=wrap;html=1;" vertex="1" parent="1">
                    <mxGeometry x="150" y="700" width="247.5" height="170" as="geometry"/>
                </mxCell>
            </root>
        </mxGraphModel>
    </diagram>
</mxfile>